<svg xmlns="http://www.w3.org/2000/svg" xmlns:xlink="http://www.w3.org/1999/xlink" viewBox="0 0 789.24 128.01"><defs><style>.cls-1{fill:#ff6a5c;}.cls-2{fill:#056571;}</style></defs><title>LVISTORY LOGO</title><g id="Layer_2" data-name="Layer 2"><g id="Logo"><path class="cls-1" d="M610,74v48H585V0h46.62q20.47,0,32,9.59t11.55,26.74a27.61,27.61,0,0,1-4.85,16.39q-4.85,6.84-14.22,11.07,10.6,3.21,15.25,10.73T676,93.09v9a45.88,45.88,0,0,0,1.36,10.77q1.36,5.62,4.64,8.32V123H657.32q-3.33-2.69-4.32-9a76.71,76.71,0,0,1-1-12V93.36q0-9.18-4.95-14.27T633.12,74Zm-1-19h21.4q10.44,0,15.58-4.42t5.14-13.08Q651.11,29,646,24t-15.16-5H609Z"/><path class="cls-1" d="M736.27,56h.5L763.31,0h25.93L748,79.1V122H724V77.53L683,0h26.71Z"/><path class="cls-2" d="M568,61a2.83,2.83,0,0,0-4.89,0L540.58,92.2c-11.88,16.48-27.69,25.55-44.54,25.55-15.68,0-30.48-7.87-42-22.28l4.91-6.81c10.57,13,23.85,19.49,37.13,19.49,14.36,0,28.72-7.58,39.64-22.75L558.2,54.18a6.19,6.19,0,0,0,0-6.79,2.83,2.83,0,0,0-4.89,0L530.79,78.62c-18.34,25.45-47.69,26.52-67,3.24l4.91-6.81C476.57,84.32,486.3,89,496,89c10.81,0,21.63-5.71,29.86-17.13L548.41,40.6a6.23,6.23,0,0,0,0-6.82C535.21,15.5,517.65,5.42,499,5.42S462.71,15.5,449.53,33.79L427,65a6.18,6.18,0,0,0,0,6.79,2.83,2.83,0,0,0,4.89,0l22.51-31.23C466.3,24.1,482.12,15,499,15c15.68,0,30.48,7.87,42,22.27l-4.91,6.81C525.85,31.52,512.8,24.62,499,24.62c-15,0-29.07,8.08-39.64,22.75L436.8,78.6a6.19,6.19,0,0,0,0,6.79,2.83,2.83,0,0,0,4.89,0l22.52-31.23C473.48,41.3,485.82,34.22,499,34.22c12,0,23.3,5.91,32.23,16.69l-4.91,6.81c-7.62-9-17.2-13.93-27.32-13.93-11.28,0-21.88,6.09-29.86,17.16L446.59,92.18a6.24,6.24,0,0,0,0,6.82c13.18,18.29,30.74,28.36,49.43,28.36S532.29,117.28,545.47,99L568,67.76A6.18,6.18,0,0,0,568,61Zm-69-7.58c8.27,0,16.11,3.93,22.41,11.14L521,65c-12.95,18-33.52,19-47.37,3.2l.37-.51C480.67,58.49,489.53,53.39,499,53.39Z"/><path class="cls-1" d="M25,107H79v19H0V4H25Z"/><path class="cls-1" d="M116.74,93.39l1.51,6.61h.5l1.42-6.44L146.68,4h25.86L131.06,126H105.93L64.53,4H90.4Z"/><path class="cls-1" d="M211,126H186V4h25Z"/><path class="cls-1" d="M301.38,94a14.33,14.33,0,0,0-5-11.44q-5-4.32-17.68-8.14-22-6.36-33.32-15.09T234.07,35.44q0-15.17,12.93-24.8T280,1q20.35,0,33.15,10.81t12.38,26.66l-.17.51h-24q0-8.56-5.72-13.86t-16.06-5.3q-9.92,0-15.34,4.41a13.89,13.89,0,0,0-5.43,11.28q0,6.27,5.81,10.3t20,8.52q20.43,5.68,30.94,15t10.51,24.5q0,15.85-12.5,25t-33,9.16q-20.18,0-35.18-10.38T230.84,88.51L231,88h24.08q0,11,6.74,16.15t18.78,5.13q10.09,0,15.43-4.15A13.35,13.35,0,0,0,301.38,94Z"/><path class="cls-1" d="M429,23H394V126H369V23H335V4h94Z"/></g></g></svg>
