<svg xmlns="http://www.w3.org/2000/svg" xmlns:xlink="http://www.w3.org/1999/xlink" viewBox="0 0 790.27 127.65">
  <title>Asset 2</title>
  <g id="Logo">
  <path class="cls-1" d="M609.2,73.4v48.88H584.68V0h46.11Q651.7,0,663.5,9.53t11.8,26.58a26.92,26.92,0,0,1-5,16.29q-5,6.8-14.53,11,10.83,3.19,15.58,10.67t4.75,18.48v9a44.45,44.45,0,0,0,1.39,10.71q1.39,5.59,4.75,8.27v1.76H657q-3.36-2.69-4.37-9a75.61,75.61,0,0,1-1-11.93V92.72q0-9.15-5-14.24T632.55,73.4Zm0-18.9h21.16q10.33,0,15.41-4.37t5.08-12.93q0-8.4-5.08-13.35t-15-5H609.2Z"/>
  <path class="cls-1" d="M736.18,56.35h.5L763.39,0h26.88l-42,79.28v43H723.84V78L682.6,0h26.88Z"/>
  <path class="cls-2" d="M567.74,60.8a2.83,2.83,0,0,0-4.89,0L540.33,92c-11.88,16.48-27.69,25.55-44.54,25.55-15.68,0-30.48-7.87-42-22.28l4.91-6.81c10.57,13,23.85,19.49,37.13,19.49,14.36,0,28.72-7.58,39.64-22.75L558,54a6.19,6.19,0,0,0,0-6.79,2.83,2.83,0,0,0-4.89,0L530.55,78.45c-18.34,25.45-47.69,26.52-67,3.24l4.91-6.81c7.85,9.26,17.58,13.9,27.32,13.9,10.81,0,21.63-5.71,29.86-17.13l22.51-31.23a6.23,6.23,0,0,0,0-6.82C535,15.32,517.41,5.25,498.71,5.25s-36.25,10.07-49.43,28.36L426.77,64.84a6.18,6.18,0,0,0,0,6.79,2.83,2.83,0,0,0,4.89,0L454.17,40.4c11.88-16.48,27.69-25.55,44.54-25.55,15.68,0,30.48,7.87,42,22.27l-4.91,6.81c-10.24-12.59-23.3-19.49-37.13-19.49-15,0-29.07,8.08-39.64,22.75L436.56,78.42a6.19,6.19,0,0,0,0,6.79,2.83,2.83,0,0,0,4.89,0L464,54C473.23,41.13,485.57,34,498.71,34c12,0,23.3,5.91,32.23,16.69L526,57.55c-7.62-9-17.2-13.93-27.32-13.93-11.28,0-21.88,6.09-29.86,17.16L446.34,92a6.24,6.24,0,0,0,0,6.82c13.18,18.29,30.74,28.36,49.43,28.36S532,117.11,545.23,98.82l22.51-31.23A6.18,6.18,0,0,0,567.74,60.8Zm-69-7.58c8.27,0,16.11,3.93,22.41,11.14l-.37.51c-12.95,18-33.52,19-47.37,3.2l.37-.51C480.42,58.31,489.28,53.22,498.71,53.22Z"/><path class="cls-1" d="M24.52,107H78.95v18.9H0V3.61H24.52Z"/><path class="cls-1" d="M116.49,93.39,118,100h.5l1.43-6.47L146.55,3.61h25.87L130.85,125.89h-25.2L64.16,3.61H90Z"/><path class="cls-1" d="M210.46,125.89H185.94V3.61h24.52Z"/><path class="cls-1" d="M300.92,94a14.2,14.2,0,0,0-5-11.34q-5-4.28-17.51-8.06-21.84-6.3-33-14.95T234.23,35.94q0-15,12.81-24.57t32.71-9.53q20.16,0,32.84,10.71T324.85,39l-.17.5H300.92q0-8.48-5.67-13.73t-15.92-5.25q-9.83,0-15.2,4.37A13.76,13.76,0,0,0,258.76,36q0,6.22,5.75,10.2t19.86,8.44Q304.61,60.3,315,69.53t10.41,24.27q0,15.71-12.39,24.78t-32.71,9.07q-20,0-34.85-10.29T231,88.52l.17-.5h23.85q0,10.92,6.68,16t18.6,5.08q10,0,15.29-4.12A13.23,13.23,0,0,0,300.92,94Z"/><path class="cls-1" d="M428.49,22.5h-34.6V125.89H369.36V22.5H334.93V3.61h93.56Z"/>
</g></svg>
