<svg xmlns="http://www.w3.org/2000/svg" viewBox="0 0 789.24 128.01"><defs><style>.cls-1{fill:#636}.cls-2{fill:url(#linear-gradient)}</style><linearGradient id="linear-gradient" x1="587.02" y1="66.39" x2="440.68" y2="66.39" gradientUnits="userSpaceOnUse"><stop offset="0" stop-color="#8e1559"/><stop offset="1" stop-color="#4a264c"/></linearGradient></defs><title>Asset 6</title><g id="Layer_2" data-name="Layer 2"><g id="Logo"><path class="cls-1" d="M610 74v48h-25V0h46.62q20.47 0 32 9.59t11.55 26.74a27.61 27.61 0 0 1-4.85 16.39q-4.85 6.84-14.22 11.07 10.6 3.21 15.25 10.73T676 93.09v9a45.88 45.88 0 0 0 1.36 10.77q1.36 5.62 4.64 8.32V123h-24.68q-3.33-2.69-4.32-9a76.71 76.71 0 0 1-1-12v-8.64q0-9.18-4.95-14.27T633.12 74zm-1-19h21.4q10.44 0 15.58-4.42t5.14-13.08Q651.11 29 646 24t-15.16-5H609zm127.27 1h.5l26.54-56h25.93L748 79.1V122h-24V77.53L683 0h26.71z"/><path class="cls-2" d="M568 61a2.83 2.83 0 0 0-4.89 0l-22.53 31.2c-11.88 16.48-27.69 25.55-44.54 25.55-15.68 0-30.48-7.87-42-22.28l4.91-6.81c10.57 13 23.85 19.49 37.13 19.49 14.36 0 28.72-7.58 39.64-22.75l22.48-31.22a6.19 6.19 0 0 0 0-6.79 2.83 2.83 0 0 0-4.89 0l-22.52 31.23c-18.34 25.45-47.69 26.52-67 3.24l4.91-6.81C476.57 84.32 486.3 89 496 89c10.81 0 21.63-5.71 29.86-17.13l22.55-31.27a6.23 6.23 0 0 0 0-6.82C535.21 15.5 517.65 5.42 499 5.42s-36.29 10.08-49.47 28.37L427 65a6.18 6.18 0 0 0 0 6.79 2.83 2.83 0 0 0 4.89 0l22.51-31.23C466.3 24.1 482.12 15 499 15c15.68 0 30.48 7.87 42 22.27l-4.91 6.81C525.85 31.52 512.8 24.62 499 24.62c-15 0-29.07 8.08-39.64 22.75L436.8 78.6a6.19 6.19 0 0 0 0 6.79 2.83 2.83 0 0 0 4.89 0l22.52-31.23c9.27-12.86 21.61-19.94 34.79-19.94 12 0 23.3 5.91 32.23 16.69l-4.91 6.81c-7.62-9-17.2-13.93-27.32-13.93-11.28 0-21.88 6.09-29.86 17.16l-22.55 31.23a6.24 6.24 0 0 0 0 6.82c13.18 18.29 30.74 28.36 49.43 28.36s36.27-10.08 49.45-28.36L568 67.76a6.18 6.18 0 0 0 0-6.76zm-69-7.58c8.27 0 16.11 3.93 22.41 11.14L521 65c-12.95 18-33.52 19-47.37 3.2l.37-.51c6.67-9.2 15.53-14.3 25-14.3z"/><path class="cls-1" d="M25 107h54v19H0V4h25zm91.74-13.61l1.51 6.61h.5l1.42-6.44L146.68 4h25.86l-41.48 122h-25.13L64.53 4H90.4zM211 126h-25V4h25zm90.38-32a14.33 14.33 0 0 0-5-11.44q-5-4.32-17.68-8.14-22-6.36-33.32-15.09t-11.31-23.89q0-15.17 12.93-24.8T280 1q20.35 0 33.15 10.81t12.38 26.66l-.17.51h-24q0-8.56-5.72-13.86t-16.06-5.3q-9.92 0-15.34 4.41a13.89 13.89 0 0 0-5.43 11.28q0 6.27 5.81 10.3t20 8.52q20.43 5.68 30.94 15t10.51 24.5q0 15.85-12.5 25t-33 9.16q-20.18 0-35.18-10.38t-14.55-29.1L231 88h24.08q0 11 6.74 16.15t18.78 5.13q10.09 0 15.43-4.15A13.35 13.35 0 0 0 301.38 94zM429 23h-35v103h-25V23h-34V4h94z"/></g></g></svg>