<svg xmlns="http://www.w3.org/2000/svg" viewBox="0 0 143 121.93"><defs><style>.cls-1{fill:#ff6a5c}</style></defs><title>Asset 5</title><g id="Layer_2" data-name="Layer 2"><path class="cls-1" d="M142 55.55a2.83 2.83 0 0 0-4.89 0l-22.53 31.23C102.7 103.26 86.89 112.33 70 112.33c-15.68 0-30.48-7.87-42-22.28l4.91-6.81c10.57 13 23.85 19.49 37.13 19.49 14.36 0 28.72-7.58 39.64-22.75l22.52-31.22a6.19 6.19 0 0 0 0-6.79 2.83 2.83 0 0 0-4.89 0L104.79 73.2c-18.34 25.45-47.69 26.52-67 3.24l4.91-6.81c7.87 9.26 17.6 13.91 27.3 13.91 10.81 0 21.63-5.71 29.86-17.13l22.51-31.23a6.23 6.23 0 0 0 0-6.82C109.21 10.07 91.65 0 73 0S36.71 10.07 23.53 28.36L1 59.6a6.18 6.18 0 0 0 0 6.79 2.83 2.83 0 0 0 4.89 0l22.53-31.24C40.3 18.68 56.12 9.6 73 9.6c15.68 0 30.48 7.87 42 22.27l-4.91 6.81C99.85 26.09 86.8 19.2 73 19.2c-15 0-29.07 8.08-39.64 22.75L10.8 73.18a6.19 6.19 0 0 0 0 6.79 3.06 3.06 0 0 0 2.45 1.41A3.06 3.06 0 0 0 15.69 80l22.52-31.27C47.48 35.88 59.82 28.8 73 28.8c12 0 23.3 5.91 32.23 16.69l-4.91 6.81c-7.62-9-17.2-13.93-27.32-13.93-11.28 0-21.88 6.09-29.86 17.16L20.59 86.75a6.24 6.24 0 0 0 0 6.82c13.2 18.29 30.76 28.36 49.41 28.36s36.25-10.07 49.43-28.36L142 62.34a6.18 6.18 0 0 0 0-6.79zM73 48c8.27 0 16.11 3.93 22.41 11.14l-.37.51c-12.95 18-33.52 19-47.37 3.2l.37-.51C54.67 53.06 63.53 48 73 48z" id="Logo"/></g></svg>